PathFileType	4	(X/Y/Z)	D:\Long Term Storage\D'Arcy Smith\Coord17.trc
DataRate	CameraRate	NumFrames	NumMarkers	Units	OrigDataRate	OrigDataStartFrame	OrigNumFrames
120.00	120.00	      125	4	mm	120.00	2427	      4853
Frame#	Time	M1			M2			M3			M4			
		X1	Y1	Z1	X2	Y2	Z2	X3	Y3	Z3	X4	Y4	Z4	

2427	20.217	557.96777	403.99490	51.60983	1000.93640	340.45120	232.03215							
2428	20.225	559.05066	412.61813	43.39540	1002.93091	341.48526	218.35545							
2429	20.233	559.31232	420.94485	35.65427	1004.67798	344.03036	202.57851							
2430	20.242	559.30914	428.80139	28.72981	1005.30139	346.49313	187.13060							
2431	20.250	559.80847	437.36499	23.40220	1007.75067	350.44257	171.78522							
2432	20.258	560.03644	444.98306	17.73498	1008.76917	354.48282	156.17200							
2433	20.267	560.66669	452.92349	12.89806	1009.84375	358.25247	141.61276							
2434	20.275	560.56354	460.16000	8.37621	1011.52094	363.47546	126.69024							
2435	20.283	560.95215	467.49448	4.56195	1012.35742	367.80557	112.20068							
2436	20.292	561.29645	474.20651	1.13631	1013.45221	373.18701	98.35216							
2437	20.300	561.52399	480.53372	-2.24890	1014.29559	379.41409	83.12153							
2438	20.308	561.78949	486.21744	-4.80766	1015.21808	385.81952	70.31474							
2439	20.317	562.33112	491.31186	-7.20060	1015.81519	391.90439	58.32590							
2440	20.325	562.80469	495.86508	-9.38672	1016.06744	397.70514	47.24576							
2441	20.333	563.30151	499.64267	-11.17045	1016.37567	404.12204	36.82133							
2442	20.342	563.93524	502.79391	-12.76309	1016.54266	410.24249	27.04164							
2443	20.350	564.67505	505.12259	-13.86960	1017.05591	417.31738	17.39304							
2444	20.358	565.31073	506.85962	-14.83194	1017.30048	423.40561	9.17350							
2445	20.367	566.01593	507.82101	-15.33157	1017.13428	429.18179	1.71094							
2446	20.375	566.87988	507.89325	-15.51237	1017.12952	434.73792	-5.04805							
2447	20.383	567.65546	507.42786	-15.34736	1016.91968	439.99689	-10.80005							
2448	20.392	568.50616	506.17993	-14.82272	1016.81592	444.80322	-15.83704							
2449	20.400	569.33264	504.35013	-13.95205	1016.52588	449.14496	-20.41683							
2450	20.408	570.07190	501.64636	-12.74893	1016.14807	452.93561	-24.07662							
2451	20.417	571.27533	498.22189	-10.29874	1015.75226	456.03674	-27.01255							
2452	20.425	571.67615	494.82883	-9.33382	1015.35138	458.62024	-29.37874							
2453	20.433	572.58563	490.64990	-6.60503	1014.81134	460.05722	-31.51016							
2454	20.442	573.14313	485.79938	-4.36610	1014.52594	461.74890	-32.07606							
2455	20.450	573.63721	480.76620	-1.62862	1014.15485	462.31888	-32.56538							
2456	20.458	574.05573	475.09387	2.02032	1013.76538	462.30441	-32.38759							
2457	20.467	574.50854	469.06812	5.58899	1013.25977	461.58249	-31.67267							
2458	20.475	575.07379	462.34897	9.97003	1012.86523	460.27216	-30.14183							
2459	20.483	575.51166	455.59381	14.52225	1012.45026	458.03702	-28.53309							
2460	20.492	575.73529	449.01709	19.57576	1011.95062	455.41403	-26.24283							
2461	20.500	575.70831	441.46884	25.08719	1011.50153	452.19943	-23.31505							
2462	20.508	576.39349	434.04272	31.09206	1011.00592	448.29816	-19.75953							
2463	20.517	576.89270	426.21182	37.88767	1010.56122	443.95996	-15.79953							
2464	20.525	578.01056	417.88480	45.42845	1009.92896	439.11215	-10.48846							
2465	20.533	578.06305	409.59695	53.31192	1009.22076	433.47055	-5.93487							
2466	20.542	578.37079	400.77258	61.98363	1008.83258	427.76624	-0.30792							
2467	20.550	579.21167	392.27414	71.67641	1008.32904	421.76852	5.83331							
2468	20.558	579.86096	383.38513	81.74063	1007.82690	415.34332	12.61776							
2469	20.567	580.25482	374.94165	93.71720	1007.21210	408.63593	19.98084							
2470	20.575	580.98669	366.26538	105.39344	1006.65833	401.70084	28.05774							
2471	20.583	581.53113	357.66666	117.51388	1006.08136	394.59186	36.59720							
2472	20.592	581.41156	349.37604	130.90320	1005.31421	387.37390	46.05306							
2473	20.600	581.46655	341.88699	145.60902	1004.36145	379.67834	56.03766							
2474	20.608	581.66809	335.46027	161.17828	1003.78925	372.82321	66.46552							
2475	20.617	581.84039	329.00082	178.81496	1002.97644	365.81351	77.55787							
2476	20.625	582.03870	322.82523	195.42030	1002.14484	359.14978	88.71632							
2477	20.633	581.53815	317.90054	212.96567	1001.18634	352.32748	101.47569							
2478	20.642	580.72809	313.68561	231.03423	1000.04120	345.66211	117.39832							
2479	20.650	579.02539	310.41388	249.61217	998.57288	339.43927	130.72635							
2480	20.658	579.01825	307.83319	268.12296	997.80066	334.61197	143.76524							
2481	20.667	578.00690	306.53720	286.91928	996.16089	329.24622	158.09003							
2482	20.675	576.32227	305.98260	307.09946	995.23260	325.37567	172.08620							
2483	20.683	575.47333	305.18567	324.46964	994.01746	321.39935	186.34030							
2484	20.692	573.42841	306.37128	340.72275	992.85754	317.88824	201.40755							
2485	20.700	571.88666	307.26044	355.96674	991.51709	315.18823	216.31064							
2486	20.708	570.48663	309.83316	372.04367	990.13995	313.00348	231.12448							
2487	20.717	569.01019	312.67023	387.46713	988.64581	311.67068	246.72298							
2488	20.725	567.43457	316.09146	402.35031	987.91107	310.37506	262.06946							
2489	20.733	565.83728	319.85056	416.64215	986.44098	310.24551	277.11627							
2490	20.742	564.29187	324.53763	430.23221	983.99030	311.38452	289.26392							
2491	20.750	562.78284	329.34637	442.98431	982.62708	312.19171	305.26172							
2492	20.758	561.17377	334.42468	454.98135	981.10205	313.92285	319.84717							
2493	20.767	559.75800	339.67920	465.64417	979.76648	316.37564	333.44138							
2494	20.775	558.48810	345.26508	477.98740	978.36572	319.35568	346.75812							
2495	20.783	556.93579	350.57855	487.19678	977.18707	322.73236	359.34955							
2496	20.792	555.92932	356.16644	496.91760	975.70544	326.63458	371.98325							
2497	20.800	554.65082	361.06116	503.80817	974.51923	330.84381	383.63181							
2498	20.808	553.29822	365.91666	510.85220	973.25476	335.65683	394.78250							
2499	20.817	552.46851	370.68619	517.01935	971.93170	340.32635	405.55823							
2500	20.825	551.45123	374.93094	522.49329	970.77618	345.54208	415.57129							
2501	20.833	550.82513	378.86166	526.75610	969.72595	350.88022	424.86832							
2502	20.842	550.30774	382.06390	530.93079	968.43768	356.16684	433.74786							
2503	20.850	549.87256	385.07999	533.75421	967.52936	361.54987	441.23029							
2504	20.858	549.59149	387.48328	536.52789	966.36816	367.06433	449.20233							
2505	20.867	549.46051	389.32169	538.48590	965.40863	371.88300	456.24435							
2506	20.875	549.58722	390.58105	539.78790	964.58185	376.49951	462.52371							
2507	20.883	549.82037	391.54819	540.53546	963.84143	380.90073	467.87991							
2508	20.892	550.19604	392.05487	540.76166	963.15735	384.80435	472.83203							
2509	20.900	550.67560	392.16299	540.65460	961.90741	387.85394	478.25439							
2510	20.908	551.31958	391.78961	539.85303	961.83258	391.30789	480.86871							
2511	20.917	551.91632	391.18338	538.88818	961.22418	394.01227	483.73819							
2512	20.925	552.59552	390.16867	537.59772	960.65942	396.17734	486.22827							
2513	20.933	553.48279	388.98572	535.72449	960.25836	397.75888	487.72894							
2514	20.942	554.44507	387.54547	533.60992	959.29858	398.44958	489.57889							
2515	20.950	555.36383	385.88028	530.90179	958.92938	398.95798	490.07513							
2516	20.958	556.31494	384.07095	527.91925	958.60376	398.96432	489.89099							
2517	20.967	557.51886	382.12817	525.11743	958.30774	398.37253	489.31583							
2518	20.975	558.36780	380.00107	520.90253	958.34845	397.33124	488.02087							
2519	20.983	559.54089	377.95203	517.18726	958.36621	395.64603	486.34787							
2520	20.992	560.76190	375.73361	512.39783	958.97375	394.13635	482.72772							
2521	21.000	561.79529	373.44431	506.73895	958.60522	391.41110	480.26300							
2522	21.008	562.98566	371.08255	500.81833	959.24609	389.13647	475.67023							
2523	21.017	564.02185	368.48553	494.02985	959.66254	386.20447	471.28943							
2524	21.025	565.19849	365.54382	486.61710	959.94727	382.84818	466.19650							
2525	21.033	566.01147	362.27347	476.70517	960.40265	379.34744	460.73218							
2526	21.042	567.08649	358.57590	465.01501	961.03253	375.77548	454.33902							
2527	21.050	568.53046	354.79178	454.59537	961.55975	371.91321	447.84845							
2528	21.058	569.94604	350.85541	442.93933	962.45569	367.78647	440.09836							
2529	21.067	571.30237	346.60287	430.21609	963.17908	363.92731	432.11166							
2530	21.075	572.72620	342.44772	416.68781	964.05981	360.15869	423.59653							
2531	21.083	573.91394	338.66074	401.90723	965.05811	356.32333	414.66428							
2532	21.092	575.03064	335.39713	386.96777	966.10022	352.83557	404.51474							
2533	21.100	576.43164	332.61887	374.74551	967.33154	349.52606	394.21997							
2534	21.108	577.07465	329.33347	354.25772	968.52008	346.39844	383.30341							
2535	21.117	577.70667	327.82703	339.23111	969.83691	343.78635	371.64621							
2536	21.125	577.78522	326.51370	316.96313	970.71118	340.97650	359.82980							
2537	21.133	578.42993	325.16202	299.11618	972.39032	339.53757	346.87210							
2538	21.142	577.55768	325.45166	280.29459	973.77167	338.10864	333.81595							
2539	21.150	577.43079	326.52573	262.13626	975.18585	337.09265	319.98602							
2540	21.158	577.38824	328.19583	241.70763	976.61810	336.50876	305.97577							
2541	21.167	575.73969	331.25674	222.96490	977.97852	336.36560	291.61664							
2542	21.175	575.55957	334.97397	204.40392	979.27863	336.81702	277.16977							
2543	21.183	574.30768	338.96219	185.72179	980.90973	337.77039	262.20374							
2544	21.192	573.49481	343.51175	166.79732	982.45703	339.26797	247.08287							
2545	21.200	572.14697	349.45847	149.60490	982.81573	340.75742	232.24263							
2546	21.208	570.46796	355.96603	132.43077	984.75146	343.08569	216.93454							
2547	21.217	568.19537	363.43240	116.09817	986.09393	346.19348	201.50121							
2548	21.225	566.63226	371.43427	100.78946	987.75482	349.90442	186.52078							
2549	21.233	564.22266	379.06845	85.58808	989.28894	353.10541	171.61575							
2550	21.242	562.03198	387.85931	71.96317	990.46838	357.46045	157.16913							
2551	21.250	559.92896	396.40759	59.10537	991.85657	361.82529	142.54315							
